<?xml version="1.0" encoding="utf-8"?>
<!-- Generator: Adobe Illustrator 22.1.0, SVG Export Plug-In . SVG Version: 6.00 Build 0)  -->
<svg version="1.1" id="Layer_1" xmlns="http://www.w3.org/2000/svg" xmlns:xlink="http://www.w3.org/1999/xlink" x="0px" y="0px"
	 viewBox="0 0 316.1 129.8" style="enable-background:new 0 0 316.1 129.8;" xml:space="preserve">
<style type="text/css">
	.st0{fill:#00234B;}
	.st1{fill:#FD55D8;}
</style>
<path class="st0" d="M172.9,81.8c0.9,0,1.6-0.1,1.6-0.1v11.7c0,0-1.9,0.2-4.1,0.2c-7.2,0-14.8-1.7-14.8-15.3V37.4h13.5v39.3
	C169.2,80.5,169.9,81.8,172.9,81.8z M206,70.9c0,6-2.7,11.1-8.5,11.1c-2.8,0-4.3-1.6-4.3-5.3V53h-13.5v26.2
	c0,11.4,6.3,15.1,14.3,15.1c5.4,0,10.4-2.7,12.5-7h0.2c0,0-0.2,1.2-0.2,2.5v3.5h12.9V53H206V70.9z M299,53v40.3h13.5V53H299z
	 M277.4,52.1c-6,0-10.8,3.4-12.9,6.8h-0.2c-2.1-4.5-6.2-6.8-11.2-6.8c-6.3,0-10,4.2-11.9,7h-0.2c0,0,0.2-1.2,0.2-2.5V53h-12.9v40.3
	h13.5V76.7c0-1.7,0.1-3.5,0.4-5c0.9-4.3,3.1-7.3,7.3-7.3c2.6,0,3.1,2.1,3.1,5.1v23.9h13.5V76.7c0-1.6,0-3.3,0.3-4.7
	c0.9-4.5,3.1-7.6,7.4-7.6c2.6,0,3.1,2.1,3.1,5.1v23.9h13.5V67.2C290.4,56.1,284.7,52.1,277.4,52.1z"/>
<path class="st1" d="M305.7,43.7c4.3,0,7.8-3.3,7.8-7.6c0-4.2-3.5-7.5-7.8-7.5s-7.8,3.3-7.8,7.5C297.9,40.4,301.4,43.7,305.7,43.7z"
	/>
<path class="st1" d="M84.4,14.9c3.5,0,6.3,2.8,6.3,6.3c0,3.5-2.8,6.3-6.3,6.3c-3.5,0-6.3-2.8-6.3-6.3C78.1,17.7,80.9,14.9,84.4,14.9
	z M78.1,43.6v65.6c0,3.5,2.8,6.3,6.3,6.3c3.5,0,6.3-2.8,6.3-6.3V43.6c0-3.5-2.8-6.3-6.3-6.3C80.9,37.3,78.1,40.2,78.1,43.6z
	 M27.7,109.3c0,3.5,2.8,6.3,6.3,6.3c3.5,0,6.3-2.8,6.3-6.3c0-3.5-2.8-6.3-6.3-6.3C30.6,103,27.7,105.8,27.7,109.3z M27.7,21.2v65.6
	c0,3.5,2.8,6.3,6.3,6.3c3.5,0,6.3-2.8,6.3-6.3V21.2c0-3.5-2.8-6.3-6.3-6.3C30.6,14.9,27.7,17.7,27.7,21.2z M103.2,87.3
	c0,3.5,2.8,6.3,6.3,6.3c3.5,0,6.3-2.8,6.3-6.3c0-3.5-2.8-6.3-6.3-6.3C106.1,81,103.2,83.8,103.2,87.3z M103.2,43.2v21.6
	c0,3.5,2.8,6.3,6.3,6.3c3.5,0,6.3-2.8,6.3-6.3V43.2c0-3.5-2.8-6.3-6.3-6.3C106.1,36.9,103.2,39.7,103.2,43.2z M15.2,43.2
	c0-3.5-2.8-6.3-6.3-6.3c-3.5,0-6.3,2.8-6.3,6.3s2.8,6.3,6.3,6.3C12.4,49.5,15.2,46.7,15.2,43.2z M2.6,65.6v21.6
	c0,3.5,2.8,6.3,6.3,6.3c3.5,0,6.3-2.8,6.3-6.3V65.6c0-3.5-2.8-6.3-6.3-6.3C5.4,59.4,2.6,62.2,2.6,65.6z M52.9,8.6v113.2
	c0,3.5,2.8,6.3,6.3,6.3c3.5,0,6.3-2.8,6.3-6.3V8.6c0-3.5-2.8-6.3-6.3-6.3C55.7,2.3,52.9,5.1,52.9,8.6z"/>
</svg>
